<?xml version="1.0" standalone="no"?>
<!DOCTYPE svg PUBLIC "-//W3C//DTD SVG 20010904//EN"
 "http://www.w3.org/TR/2001/REC-SVG-20010904/DTD/svg10.dtd">
<svg version="1.0" xmlns="http://www.w3.org/2000/svg"
 width="450.000000pt" height="450.000000pt" viewBox="0 0 450.000000 450.000000"
 preserveAspectRatio="xMidYMid meet">
<metadata>
Created by potrace 1.14, written by Peter Selinger 2001-2017
</metadata>
<g transform="translate(0.000000,450.000000) scale(0.100000,-0.100000)"
fill="#000000" stroke="none">
<path d="M0 4275 l0 -225 675 0 675 0 0 225 0 225 -675 0 -675 0 0 -225z"/>
<path d="M1800 4275 l0 -225 450 0 450 0 0 225 0 225 -450 0 -450 0 0 -225z"/>
<path d="M4050 4275 l0 -225 -450 0 -450 0 0 -225 0 -225 450 0 450 0 0 -225
0 -225 -225 0 -225 0 0 -450 0 -450 225 0 225 0 0 -225 0 -225 -450 0 -450 0
0 -225 0 -225 -450 0 -450 0 0 -225 0 -225 675 0 675 0 0 -225 0 -225 -225 0
-225 0 0 -225 0 -225 225 0 225 0 0 225 0 225 225 0 225 0 0 -225 0 -225 225
0 225 0 0 675 0 675 -225 0 -225 0 0 225 0 225 225 0 225 0 0 225 0 225 -225
0 -225 0 0 450 0 450 225 0 225 0 0 225 0 225 -225 0 -225 0 0 225 0 225 225
0 225 0 0 225 0 225 -225 0 -225 0 0 -225z m0 -3150 l0 -225 -225 0 -225 0 0
225 0 225 225 0 225 0 0 -225z"/>
<path d="M0 3375 l0 -225 225 0 225 0 0 -225 0 -225 225 0 225 0 0 -225 0
-225 -450 0 -450 0 0 -225 0 -225 450 0 450 0 0 -450 0 -450 450 0 450 0 0
225 0 225 -225 0 -225 0 0 225 0 225 -225 0 -225 0 0 225 0 225 225 0 225 0 0
225 0 225 -225 0 -225 0 0 225 0 225 -225 0 -225 0 0 225 0 225 -225 0 -225 0
0 -225z"/>
<path d="M2250 2925 l0 -225 225 0 225 0 0 -225 0 -225 -450 0 -450 0 0 -225
0 -225 450 0 450 0 0 225 0 225 225 0 225 0 0 450 0 450 -450 0 -450 0 0 -225z"/>
<path d="M0 675 l0 -675 675 0 675 0 0 225 0 225 -450 0 -450 0 0 450 0 450
-225 0 -225 0 0 -675z"/>
<path d="M2250 225 l0 -225 225 0 225 0 0 225 0 225 -225 0 -225 0 0 -225z"/>
</g>
</svg>
